<?xml version="1.0" encoding="utf-8"?>
<svg xmlns="http://www.w3.org/2000/svg" style="margin: auto; display: block; shape-rendering: auto; background: none;" width="266" height="100" preserveAspectRatio="xMidYMid">
<style type="text/css">
  text {
    text-anchor: middle; font-size: 47px; opacity: 0;
  }
</style>
<g style="transform-origin: 133px 50px; transform: scale(0.854545);">
<g transform="translate(133,50)">
  <g transform="translate(0,0)"><g class="path" style="opacity: 1; transform-origin: -125.307px -3.75229px; animation: 1.26582s linear -0.716094s infinite normal forwards running fade-56d5848d-0372-41ab-9fea-839844961dbd;"><path d="M15.04-16.87L15.04 0L4.38 0L4.38-38.67L15.04-38.67L15.04-21.78L29.17-21.78L29.17-38.67L39.83-38.67L39.83 0L29.17 0L29.17-16.87L15.04-16.87" fill="#e80c91" stroke="none" stroke-width="none" transform="translate(-147.41206169128418,15.582714244297568)" style="fill: rgb(232, 12, 145);"></path></g><g class="path" style="opacity: 1; transform-origin: -84.9471px -3.75229px; animation: 1.26582s linear -0.596745s infinite normal forwards running fade-56d5848d-0372-41ab-9fea-839844961dbd;"><path d="M76.35-4.94L76.35 0L48.58 0L48.58-38.67L76.35-38.67L76.35-33.73L59.24-33.73L59.24-21.78L72.46-21.78L72.46-16.87L59.24-16.87L59.24-4.94L76.35-4.94" fill="#e80c91" stroke="none" stroke-width="none" transform="translate(-147.41206169128418,15.582714244297568)" style="fill: rgb(199, 18, 121);"></path></g><g class="path" style="opacity: 1; transform-origin: -47.1171px -3.75229px; animation: 1.26582s linear -0.477396s infinite normal forwards running fade-56d5848d-0372-41ab-9fea-839844961dbd;"><path d="M93.62-14.45L93.62 0L82.96 0L82.96-38.67L101.97-38.67L101.97-38.67Q104.66-38.67 107.15-38.04L107.15-38.04L107.15-38.04Q109.65-37.41 111.57-36.05L111.57-36.05L111.57-36.05Q113.49-34.70 114.63-32.55L114.63-32.55L114.63-32.55Q115.77-30.40 115.77-27.34L115.77-27.34L115.77-27.34Q115.77-24.95 114.77-22.84L114.77-22.84L114.77-22.84Q113.76-20.73 112.08-19.08L112.08-19.08L112.08-19.08Q110.40-17.43 108.23-16.34L108.23-16.34L108.23-16.34Q106.05-15.25 103.72-14.90L103.72-14.90L103.72-14.90Q104.76-13.13 105.90-11.55L105.90-11.55L105.90-11.55Q107.05-9.96 108.21-8.58L108.21-8.58L108.21-8.58Q109.38-7.20 110.54-6.03L110.54-6.03L110.54-6.03Q111.69-4.86 112.74-3.89L112.74-3.89L112.74-3.89Q115.21-1.64 117.63 0L117.63 0L104.33 0L104.33 0Q102.72-1.53 101.27-3.68L101.27-3.68L101.27-3.68Q100.04-5.51 98.79-8.20L98.79-8.20L98.79-8.20Q97.54-10.90 96.87-14.45L96.87-14.45L93.62-14.45zM104.95-27.34L104.95-27.34L104.95-27.34Q104.95-31.23 103.06-33.06L103.06-33.06L103.06-33.06Q101.16-34.89 97.38-34.89L97.38-34.89L93.62-34.89L93.62-18.10L97.38-18.10L97.38-18.10Q99.39-18.10 100.83-18.87L100.83-18.87L100.83-18.87Q102.27-19.63 103.18-20.91L103.18-20.91L103.18-20.91Q104.09-22.18 104.52-23.85L104.52-23.85L104.52-23.85Q104.95-25.51 104.95-27.34" fill="#e80c91" stroke="none" stroke-width="none" transform="translate(-147.41206169128418,15.582714244297568)" style="fill: rgb(220, 35, 141);"></path></g><g class="path" style="opacity: 1; transform-origin: -1.76207px -3.75229px; animation: 1.26582s linear -0.358047s infinite normal forwards running fade-56d5848d-0372-41ab-9fea-839844961dbd;"><path d="M139.19 0L130.36-28.84L127.35 0L120.77 0L127.35-38.67L137.10-38.67L146.15-9.16L155.31-38.67L165.05-38.67L170.53 0L159.68 0L156.49-28.09L148.94 0L139.19 0" fill="#e80c91" stroke="none" stroke-width="none" transform="translate(-147.41206169128418,15.582714244297568)" style="fill: rgb(232, 12, 145);"></path></g><g class="path" style="opacity: 1; transform-origin: 48.7679px -3.81729px; animation: 1.26582s linear -0.238698s infinite normal forwards running fade-56d5848d-0372-41ab-9fea-839844961dbd;"><path d="M217.42-19.39L217.42-19.39L217.42-19.39Q217.42-14.72 215.81-10.97L215.81-10.97L215.81-10.97Q214.20-7.22 211.35-4.62L211.35-4.62L211.35-4.62Q208.51-2.01 204.61-0.62L204.61-0.62L204.61-0.62Q200.72 0.78 196.18 0.78L196.18 0.78L196.18 0.78Q191.64 0.78 187.75-0.62L187.75-0.62L187.75-0.62Q183.85-2.01 181.01-4.62L181.01-4.62L181.01-4.62Q178.16-7.22 176.55-10.97L176.55-10.97L176.55-10.97Q174.94-14.72 174.94-19.39L174.94-19.39L174.94-19.39Q174.94-24.14 176.53-27.89L176.53-27.89L176.53-27.89Q178.13-31.64 180.97-34.23L180.97-34.23L180.97-34.23Q183.80-36.82 187.69-38.20L187.69-38.20L187.69-38.20Q191.59-39.58 196.18-39.58L196.18-39.58L196.18-39.58Q200.77-39.58 204.67-38.20L204.67-38.20L204.67-38.20Q208.56-36.82 211.39-34.23L211.39-34.23L211.39-34.23Q214.23-31.64 215.82-27.89L215.82-27.89L215.82-27.89Q217.42-24.14 217.42-19.39zM206.57-19.39L206.57-19.39L206.57-19.39Q206.57-21.16 206.41-23.02L206.41-23.02L206.41-23.02Q206.25-24.87 205.82-26.61L205.82-26.61L205.82-26.61Q205.39-28.36 204.65-29.89L204.65-29.89L204.65-29.89Q203.91-31.42 202.76-32.56L202.76-32.56L202.76-32.56Q201.60-33.70 199.98-34.36L199.98-34.36L199.98-34.36Q198.35-35.02 196.18-35.02L196.18-35.02L196.18-35.02Q193.98-35.02 192.34-34.36L192.34-34.36L192.34-34.36Q190.70-33.70 189.55-32.58L189.55-32.58L189.55-32.58Q188.39-31.45 187.67-29.92L187.67-29.92L187.67-29.92Q186.94-28.39 186.52-26.65L186.52-26.65L186.52-26.65Q186.11-24.92 185.95-23.06L185.95-23.06L185.95-23.06Q185.79-21.19 185.79-19.39L185.79-19.39L185.79-19.39Q185.79-17.62 185.95-15.76L185.95-15.76L185.95-15.76Q186.11-13.91 186.54-12.18L186.54-12.18L186.54-12.18Q186.97-10.45 187.71-8.92L187.71-8.92L187.71-8.92Q188.44-7.39 189.60-6.24L189.60-6.24L189.60-6.24Q190.75-5.10 192.38-4.43L192.38-4.43L192.38-4.43Q194.00-3.76 196.18-3.76L196.18-3.76L196.18-3.76Q198.30-3.76 199.89-4.44L199.89-4.44L199.89-4.44Q201.47-5.13 202.62-6.30L202.62-6.30L202.62-6.30Q203.78-7.47 204.54-9.01L204.54-9.01L204.54-9.01Q205.31-10.55 205.75-12.29L205.75-12.29L205.75-12.29Q206.20-14.02 206.38-15.84L206.38-15.84L206.38-15.84Q206.57-17.67 206.57-19.39" fill="#e80c91" stroke="none" stroke-width="none" transform="translate(-147.41206169128418,15.582714244297568)" style="fill: rgb(199, 18, 121);"></path></g><g class="path" style="opacity: 1; transform-origin: 91.3329px -3.83229px; animation: 1.26582s linear -0.119349s infinite normal forwards running fade-56d5848d-0372-41ab-9fea-839844961dbd;"><path d="M255.74-11.82L255.74-11.82L255.74-11.82Q255.74-9.32 255.11-7.41L255.11-7.41L255.11-7.41Q254.48-5.51 253.34-4.11L253.34-4.11L253.34-4.11Q252.20-2.71 250.64-1.77L250.64-1.77L250.64-1.77Q249.08-0.83 247.24-0.27L247.24-0.27L247.24-0.27Q245.41 0.30 243.35 0.54L243.35 0.54L243.35 0.54Q241.30 0.78 239.17 0.78L239.17 0.78L239.17 0.78Q236.38 0.78 234.02 0.36L234.02 0.36L234.02 0.36Q231.66-0.05 229.57-0.95L229.57-0.95L229.57-0.95Q227.49-1.85 225.57-3.28L225.57-3.28L225.57-3.28Q223.65-4.70 221.75-6.74L221.75-6.74L227.22-12.30L227.22-12.30Q227.98-10.45 229.29-8.88L229.29-8.88L229.29-8.88Q230.61-7.30 232.18-6.18L232.18-6.18L232.18-6.18Q233.75-5.05 235.44-4.40L235.44-4.40L235.44-4.40Q237.13-3.76 238.64-3.76L238.64-3.76L238.64-3.76Q240.41-3.76 241.97-4.01L241.97-4.01L241.97-4.01Q243.53-4.27 244.68-4.86L244.68-4.86L244.68-4.86Q245.83-5.45 246.49-6.43L246.49-6.43L246.49-6.43Q247.15-7.41 247.15-8.89L247.15-8.89L247.15-8.89Q247.15-10.02 246.64-10.82L246.64-10.82L246.64-10.82Q246.13-11.63 245.31-12.21L245.31-12.21L245.31-12.21Q244.49-12.78 243.44-13.19L243.44-13.19L243.44-13.19Q242.40-13.59 241.31-13.87L241.31-13.87L241.31-13.87Q240.22-14.15 239.17-14.38L239.17-14.38L239.17-14.38Q238.13-14.61 237.32-14.85L237.32-14.85L237.32-14.85Q235.74-15.31 234.02-15.83L234.02-15.83L234.02-15.83Q232.30-16.35 230.63-17.03L230.63-17.03L230.63-17.03Q228.97-17.70 227.48-18.57L227.48-18.57L227.48-18.57Q225.99-19.44 224.86-20.64L224.86-20.64L224.86-20.64Q223.73-21.83 223.06-23.40L223.06-23.40L223.06-23.40Q222.39-24.98 222.39-27.02L222.39-27.02L222.39-27.02Q222.39-29.46 222.99-31.35L222.99-31.35L222.99-31.35Q223.60-33.25 224.70-34.64L224.70-34.64L224.70-34.64Q225.80-36.04 227.30-36.99L227.30-36.99L227.30-36.99Q228.81-37.95 230.61-38.52L230.61-38.52L230.61-38.52Q232.41-39.10 234.43-39.36L234.43-39.36L234.43-39.36Q236.46-39.61 238.58-39.61L238.58-39.61L238.58-39.61Q241.48-39.61 243.86-39.07L243.86-39.07L243.86-39.07Q246.24-38.54 248.25-37.54L248.25-37.54L248.25-37.54Q250.27-36.55 251.94-35.17L251.94-35.17L251.94-35.17Q253.62-33.78 255.10-32.09L255.10-32.09L249.62-26.53L249.62-26.53Q248.98-28.47 247.84-30.02L247.84-30.02L247.84-30.02Q246.69-31.58 245.30-32.70L245.30-32.70L245.30-32.70Q243.90-33.81 242.37-34.42L242.37-34.42L242.37-34.42Q240.84-35.02 239.42-35.02L239.42-35.02L239.42-35.02Q237.56-35.02 236.01-34.76L236.01-34.76L236.01-34.76Q234.45-34.51 233.33-33.93L233.33-33.93L233.33-33.93Q232.22-33.35 231.60-32.37L231.60-32.37L231.60-32.37Q230.98-31.39 230.98-29.94L230.98-29.94L230.98-29.94Q230.98-28.79 231.44-27.98L231.44-27.98L231.44-27.98Q231.90-27.18 232.66-26.61L232.66-26.61L232.66-26.61Q233.43-26.05 234.39-25.69L234.39-25.69L234.39-25.69Q235.36-25.32 236.40-25.06L236.40-25.06L236.40-25.06Q237.43-24.79 238.44-24.59L238.44-24.59L238.44-24.59Q239.44-24.38 240.28-24.14L240.28-24.14L240.28-24.14Q241.89-23.69 243.66-23.18L243.66-23.18L243.66-23.18Q245.43-22.67 247.15-21.98L247.15-21.98L247.15-21.98Q248.87-21.30 250.43-20.41L250.43-20.41L250.43-20.41Q251.98-19.52 253.17-18.30L253.17-18.30L253.17-18.30Q254.35-17.08 255.05-15.48L255.05-15.48L255.05-15.48Q255.74-13.88 255.74-11.82" fill="#e80c91" stroke="none" stroke-width="none" transform="translate(-147.41206169128418,15.582714244297568)" style="fill: rgb(220, 35, 141);"></path></g><g class="path" style="opacity: 1; transform-origin: 133.15px -0.0572853px; animation: 1.26582s linear 0s infinite normal forwards running fade-56d5848d-0372-41ab-9fea-839844961dbd;"><path d="M299.20-18.50L299.20-18.50L299.20-17.99L299.20-17.99Q299.14-15.74 298.73-13.32L298.73-13.32L298.73-13.32Q298.31-10.90 297.56-8.49L297.56-8.49L297.56-8.49Q296.81-6.07 295.76-3.71L295.76-3.71L295.76-3.71Q294.71-1.34 293.41 0.82L293.41 0.82L293.41 0.82Q292.11 2.98 290.60 4.87L290.60 4.87L290.60 4.87Q289.10 6.77 287.43 8.22L287.43 8.22L283.43 5.91L283.43 5.91Q284.37 4.32 285.14 2.46L285.14 2.46L285.14 2.46Q285.90 0.59 286.52-1.45L286.52-1.45L286.52-1.45Q287.14-3.49 287.58-5.64L287.58-5.64L287.58-5.64Q288.02-7.79 288.32-9.91L288.32-9.91L288.32-9.91Q288.62-12.03 288.76-14.09L288.76-14.09L288.76-14.09Q288.91-16.14 288.91-17.99L288.91-17.99L288.91-17.99Q288.91-19.44 288.90-21.28L288.90-21.28L288.90-21.28Q288.88-23.12 288.68-25.03L288.68-25.03L288.68-25.03Q288.48-26.94 288.02-28.75L288.02-28.75L288.02-28.75Q287.57-30.56 286.67-31.98L286.67-31.98L286.67-31.98Q285.77-33.41 284.36-34.27L284.36-34.27L284.36-34.27Q282.95-35.13 280.85-35.13L280.85-35.13L280.85-35.13Q279.00-35.13 277.67-34.50L277.67-34.50L277.67-34.50Q276.34-33.86 275.42-32.80L275.42-32.80L275.42-32.80Q274.49-31.74 273.94-30.35L273.94-30.35L273.94-30.35Q273.39-28.95 273.08-27.41L273.08-27.41L273.08-27.41Q272.77-25.86 272.68-24.29L272.68-24.29L272.68-24.29Q272.58-22.72 272.58-21.32L272.58-21.32L272.58-13.83L284.16-13.83L284.16-9.40L272.58-9.40L272.58 0L261.92 0L261.92-19.66L261.92-19.66Q261.92-23.87 263.26-27.50L263.26-27.50L263.26-27.50Q264.61-31.13 267.06-33.80L267.06-33.80L267.06-33.80Q269.52-36.47 272.97-37.99L272.97-37.99L272.97-37.99Q276.42-39.50 280.67-39.50L280.67-39.50L280.67-39.50Q283.54-39.50 286.05-38.69L286.05-38.69L286.05-38.69Q288.56-37.87 290.63-36.43L290.63-36.43L290.63-36.43Q292.70-34.99 294.32-33.02L294.32-33.02L294.32-33.02Q295.95-31.04 297.03-28.71L297.03-28.71L297.03-28.71Q298.12-26.37 298.69-23.77L298.69-23.77L298.69-23.77Q299.25-21.16 299.20-18.50" fill="#e80c91" stroke="none" stroke-width="none" transform="translate(-147.41206169128418,15.582714244297568)" style="fill: rgb(232, 12, 145);"></path></g></g>
</g>
</g>
<style id="fade-56d5848d-0372-41ab-9fea-839844961dbd" data-anikit="">@keyframes fade-56d5848d-0372-41ab-9fea-839844961dbd
{
  0% {
    animation-timing-function: cubic-bezier(0.2057,0.573,0.3723,0.9184);
    opacity: 1;
  }
  100% {
    opacity: 0;
  }
}</style></svg>