<?xml version="1.0" encoding="utf-8"?>
<svg xmlns="http://www.w3.org/2000/svg" style="margin: auto; display: block; shape-rendering: auto; background: none;" width="280" height="250" preserveAspectRatio="xMidYMid">
<style type="text/css">
  text {
    text-anchor: middle; font-size: 55px; opacity: 0;
  }
</style>
<g style="transform-origin:140px 125px;transform:scale(1)">
<g transform="translate(140,125)">
  <g transform="translate(0,0)"><g class="path" style="opacity: 1; transform-origin: -97.075px -4.37209px; animation: 1.26582s linear -0.716094s infinite normal forwards running fade-56d5848d-0372-41ab-9fea-839844961dbd;"><path d="M25.74-36.85L33.55-38.23L32.78-14.30L33.44 0L25.74 0L26.40-13.37L26.29-16.28L11.49-16.28L11.44-14.30L12.10 0L4.40 0L5.06-13.37L4.40-36.85L12.21-38.23L11.66-22.11L26.13-22.11L25.74-36.85" fill="#e80c91" stroke="none" stroke-width="none" transform="translate(-116.05001258850098,14.7429119001116)" style="fill: rgb(232, 12, 145);"></path></g><g class="path" style="opacity: 1; transform-origin: -63.33px -4.23209px; animation: 1.26582s linear -0.596745s infinite normal forwards running fade-56d5848d-0372-41ab-9fea-839844961dbd;"><path d="M62.48 0L42.35 0L43.01-13.37L42.35-37.95L62.98-37.95L62.37-32.06L50.00-32.06L49.67-22.33L60.67-22.33L60.06-16.50L49.45-16.50L49.39-14.30L49.78-5.83L63.09-5.83L62.48 0" fill="#e80c91" stroke="none" stroke-width="none" transform="translate(-116.05001258850098,14.7429119001116)" style="fill: rgb(199, 18, 121);"></path></g><g class="path" style="opacity: 1; transform-origin: -33.52px -3.93209px; animation: 1.26582s linear -0.477396s infinite normal forwards running fade-56d5848d-0372-41ab-9fea-839844961dbd;"><path d="M79.26-14.63L79.26-14.63L76.12-14.63L76.12-14.30L76.78 0L69.41 0L70.07-13.37L69.41-37.95L81.34-37.95L81.34-37.95Q86.63-37.95 89.76-35.09L89.76-35.09L89.76-35.09Q92.90-32.23 92.90-27.50L92.90-27.50L92.90-27.50Q92.90-23.93 91.05-20.98L91.05-20.98L91.05-20.98Q89.21-18.04 86.08-16.34L86.08-16.34L95.65-2.81L88.99 0.60L80.41-14.69L80.41-14.69Q80.03-14.63 79.26-14.63zM79.37-32.40L79.37-32.40L76.67-32.40L76.29-19.96L80.03-19.96L80.03-19.96Q82.78-19.96 84.29-21.78L84.29-21.78L84.29-21.78Q85.80-23.59 85.80-26.95L85.80-26.95L85.80-26.95Q85.80-32.40 79.37-32.40" fill="#e80c91" stroke="none" stroke-width="none" transform="translate(-116.05001258850098,14.7429119001116)" style="fill: rgb(220, 35, 141);"></path></g><g class="path" style="opacity: 1; transform-origin: 1.48499px -4.42709px; animation: 1.26582s linear -0.358047s infinite normal forwards running fade-56d5848d-0372-41ab-9fea-839844961dbd;"><path d="M110.28-38.34L117.21-17.16L117.75-17.16L125.78-38.06L133.38-37.84L133.59-14.19L134.64 0L127.22 0L127.49-14.30L126.89-28.77L120.28-10.56L113.52-10.23L107.36-28.77L106.87-14.30L107.25 0L100.43 0L101.20-13.37L101.53-36.96L110.28-38.34" fill="#e80c91" stroke="none" stroke-width="none" transform="translate(-116.05001258850098,14.7429119001116)" style="fill: rgb(232, 12, 145);"></path></g><g class="path" style="opacity: 1; transform-origin: 40.065px -4.20709px; animation: 1.26582s linear -0.238698s infinite normal forwards running fade-56d5848d-0372-41ab-9fea-839844961dbd;"><path d="M157.74-38.50L157.74-38.50L157.74-38.50Q164.23-38.50 168.44-33.55L168.44-33.55L168.44-33.55Q172.64-28.60 172.64-20.96L172.64-20.96L172.64-20.96Q172.64-11.28 167.64-5.33L167.64-5.33L167.64-5.33Q162.63 0.60 154.50 0.60L154.50 0.60L154.50 0.60Q148.17 0.60 143.88-4.48L143.88-4.48L143.88-4.48Q139.59-9.57 139.59-17.05L139.59-17.05L139.59-17.05Q139.59-26.40 144.70-32.45L144.70-32.45L144.70-32.45Q149.82-38.50 157.74-38.50zM165.16-17.88L165.16-17.88L165.16-17.88Q165.16-31.79 156.03-31.79L156.03-31.79L156.03-31.79Q151.85-31.79 149.46-28.68L149.46-28.68L149.46-28.68Q147.07-25.57 147.07-19.39L147.07-19.39L147.07-19.39Q147.07-13.20 149.63-9.21L149.63-9.21L149.63-9.21Q152.19-5.22 156.39-5.22L156.39-5.22L156.39-5.22Q160.60-5.22 162.88-8.61L162.88-8.61L162.88-8.61Q165.16-11.99 165.16-17.88" fill="#e80c91" stroke="none" stroke-width="none" transform="translate(-116.05001258850098,14.7429119001116)" style="fill: rgb(199, 18, 121);"></path></g><g class="path" style="opacity: 1; transform-origin: 71.745px -4.20709px; animation: 1.26582s linear -0.119349s infinite normal forwards running fade-56d5848d-0372-41ab-9fea-839844961dbd;"><path d="M175.01-5.00L179.30-10.95L179.30-10.95Q183.97-6.27 188.65-6.27L188.65-6.27L188.65-6.27Q191.07-6.27 192.53-7.40L192.53-7.40L192.53-7.40Q193.98-8.53 193.98-10.31L193.98-10.31L193.98-10.31Q193.98-12.10 192.22-13.34L192.22-13.34L192.22-13.34Q190.46-14.57 187.96-15.51L187.96-15.51L187.96-15.51Q185.46-16.45 182.98-17.63L182.98-17.63L182.98-17.63Q180.51-18.81 178.75-21.01L178.75-21.01L178.75-21.01Q176.99-23.21 176.99-26.34L176.99-26.34L176.99-26.34Q176.99-31.30 181.11-34.90L181.11-34.90L181.11-34.90Q185.24-38.50 190.90-38.50L190.90-38.50L190.90-38.50Q193.49-38.50 195.91-37.95L195.91-37.95L195.91-37.95Q198.33-37.40 200.58-36.35L200.58-36.35L196.84-28.32L196.84-28.32Q195.30-29.54 192.64-30.55L192.64-30.55L192.64-30.55Q189.97-31.57 187.96-31.57L187.96-31.57L187.96-31.57Q185.95-31.57 184.72-30.61L184.72-30.61L184.72-30.61Q183.48-29.64 183.48-28.05L183.48-28.05L183.48-28.05Q183.48-26.46 185.24-25.22L185.24-25.22L185.24-25.22Q187-23.98 189.50-23.05L189.50-23.05L189.50-23.05Q192.00-22.11 194.51-20.98L194.51-20.98L194.51-20.98Q197.01-19.86 198.77-17.66L198.77-17.66L198.77-17.66Q200.53-15.46 200.53-12.32L200.53-12.32L200.53-12.32Q200.53-7.15 196.40-3.27L196.40-3.27L196.40-3.27Q192.28 0.60 186.78 0.60L186.78 0.60L186.78 0.60Q182.65 0.60 179.46-1.38L179.46-1.38L179.46-1.38Q176.66-3.08 175.50-4.40L175.50-4.40L175.01-5.00" fill="#e80c91" stroke="none" stroke-width="none" transform="translate(-116.05001258850098,14.7429119001116)" style="fill: rgb(220, 35, 141);"></path></g><g class="path" style="opacity: 1; transform-origin: 103.59px -4.25709px; animation: 1.26582s linear 0s infinite normal forwards running fade-56d5848d-0372-41ab-9fea-839844961dbd;"><path d="M236.50-0.94L228.58 0.28L225.88-10.45L212.74-10.45L209.82 0L202.78-0.55L207.62-13.92L214.99-37.56L224.84-38.28L231.93-14.74L236.50-0.94zM224.23-16.28L219.89-31.13L219.17-31.13L214.44-16.28L224.23-16.28" fill="#e80c91" stroke="none" stroke-width="none" transform="translate(-116.05001258850098,14.7429119001116)" style="fill: rgb(232, 12, 145);"></path></g></g>
</g>
</g>
<style id="fade-56d5848d-0372-41ab-9fea-839844961dbd" data-anikit="">@keyframes fade-56d5848d-0372-41ab-9fea-839844961dbd
{
  0% {
    animation-timing-function: cubic-bezier(0.2057,0.573,0.3723,0.9184);
    opacity: 1;
  }
  100% {
    opacity: 0;
  }
}</style></svg>